<?xml version="1.0" standalone="no"?>
<!DOCTYPE svg PUBLIC "-//W3C//DTD SVG 1.1//EN" "http://www.w3.org/Graphics/SVG/1.1/DTD/svg11.dtd">
<svg xmlns:xlink="http://www.w3.org/1999/xlink" width="96.202ex" height="13.343ex" style="vertical-align: -5.837ex; margin-bottom: -0.334ex;" viewBox="0 -3087.6 41420 5744.7" xmlns="http://www.w3.org/2000/svg">
<defs>
<path stroke-width="10" id="E2-MJMAINB-42" d="M720 510Q720 476 704 448T665 404T619 377T580 362L564 359L583 356Q602 353 632 342T690 312Q712 292 725 276Q752 235 752 189V183Q752 160 741 125Q698 18 547 2Q543 1 288 0H39V62H147V624H39V686H264H409Q502 686 542 681T624 655Q720 607 720 510ZM563 513Q563 553 548 578T518 611T486 622Q479 624 385 624H293V382H375Q458 383 467 385Q563 405 563 513ZM590 192Q590 307 505 329Q504 330 503 330L398 331H293V62H391H400H444Q496 62 528 75T580 131Q590 155 590 192Z"></path>
<path stroke-width="10" id="E2-MJMAIN-28" d="M94 250Q94 319 104 381T127 488T164 576T202 643T244 695T277 729T302 750H315H319Q333 750 333 741Q333 738 316 720T275 667T226 581T184 443T167 250T184 58T225 -81T274 -167T316 -220T333 -241Q333 -250 318 -250H315H302L274 -226Q180 -141 137 -14T94 250Z"></path>
<path stroke-width="10" id="E2-MJMATHI-74" d="M26 385Q19 392 19 395Q19 399 22 411T27 425Q29 430 36 430T87 431H140L159 511Q162 522 166 540T173 566T179 586T187 603T197 615T211 624T229 626Q247 625 254 615T261 596Q261 589 252 549T232 470L222 433Q222 431 272 431H323Q330 424 330 420Q330 398 317 385H210L174 240Q135 80 135 68Q135 26 162 26Q197 26 230 60T283 144Q285 150 288 151T303 153H307Q322 153 322 145Q322 142 319 133Q314 117 301 95T267 48T216 6T155 -11Q125 -11 98 4T59 56Q57 64 57 83V101L92 241Q127 382 128 383Q128 385 77 385H26Z"></path>
<path stroke-width="10" id="E2-MJMAIN-29" d="M60 749L64 750Q69 750 74 750H86L114 726Q208 641 251 514T294 250Q294 182 284 119T261 12T224 -76T186 -143T145 -194T113 -227T90 -246Q87 -249 86 -250H74Q66 -250 63 -250T58 -247T55 -238Q56 -237 66 -225Q221 -64 221 250T66 725Q56 737 55 738Q55 746 60 749Z"></path>
<path stroke-width="10" id="E2-MJMAIN-3D" d="M56 347Q56 360 70 367H707Q722 359 722 347Q722 336 708 328L390 327H72Q56 332 56 347ZM56 153Q56 168 72 173H708Q722 163 722 153Q722 140 707 133H70Q56 140 56 153Z"></path>
<path stroke-width="10" id="E2-MJSZ2-2211" d="M60 948Q63 950 665 950H1267L1325 815Q1384 677 1388 669H1348L1341 683Q1320 724 1285 761Q1235 809 1174 838T1033 881T882 898T699 902H574H543H251L259 891Q722 258 724 252Q725 250 724 246Q721 243 460 -56L196 -356Q196 -357 407 -357Q459 -357 548 -357T676 -358Q812 -358 896 -353T1063 -332T1204 -283T1307 -196Q1328 -170 1348 -124H1388Q1388 -125 1381 -145T1356 -210T1325 -294L1267 -449L666 -450Q64 -450 61 -448Q55 -446 55 -439Q55 -437 57 -433L590 177Q590 178 557 222T452 366T322 544L56 909L55 924Q55 945 60 948Z"></path>
<path stroke-width="10" id="E2-MJMATHI-69" d="M184 600Q184 624 203 642T247 661Q265 661 277 649T290 619Q290 596 270 577T226 557Q211 557 198 567T184 600ZM21 287Q21 295 30 318T54 369T98 420T158 442Q197 442 223 419T250 357Q250 340 236 301T196 196T154 83Q149 61 149 51Q149 26 166 26Q175 26 185 29T208 43T235 78T260 137Q263 149 265 151T282 153Q302 153 302 143Q302 135 293 112T268 61T223 11T161 -11Q129 -11 102 10T74 74Q74 91 79 106T122 220Q160 321 166 341T173 380Q173 404 156 404H154Q124 404 99 371T61 287Q60 286 59 284T58 281T56 279T53 278T49 278T41 278H27Q21 284 21 287Z"></path>
<path stroke-width="10" id="E2-MJMAIN-30" d="M96 585Q152 666 249 666Q297 666 345 640T423 548Q460 465 460 320Q460 165 417 83Q397 41 362 16T301 -15T250 -22Q224 -22 198 -16T137 16T82 83Q39 165 39 320Q39 494 96 585ZM321 597Q291 629 250 629Q208 629 178 597Q153 571 145 525T137 333Q137 175 145 125T181 46Q209 16 250 16Q290 16 318 46Q347 76 354 130T362 333Q362 478 354 524T321 597Z"></path>
<path stroke-width="10" id="E2-MJMATHI-6E" d="M21 287Q22 293 24 303T36 341T56 388T89 425T135 442Q171 442 195 424T225 390T231 369Q231 367 232 367L243 378Q304 442 382 442Q436 442 469 415T503 336T465 179T427 52Q427 26 444 26Q450 26 453 27Q482 32 505 65T540 145Q542 153 560 153Q580 153 580 145Q580 144 576 130Q568 101 554 73T508 17T439 -10Q392 -10 371 17T350 73Q350 92 386 193T423 345Q423 404 379 404H374Q288 404 229 303L222 291L189 157Q156 26 151 16Q138 -11 108 -11Q95 -11 87 -5T76 7T74 17Q74 30 112 180T152 343Q153 348 153 366Q153 405 129 405Q91 405 66 305Q60 285 60 284Q58 278 41 278H27Q21 284 21 287Z"></path>
<path stroke-width="10" id="E2-MJSZ3-28" d="M701 -940Q701 -943 695 -949H664Q662 -947 636 -922T591 -879T537 -818T475 -737T412 -636T350 -511T295 -362T250 -186T221 17T209 251Q209 962 573 1361Q596 1386 616 1405T649 1437T664 1450H695Q701 1444 701 1441Q701 1436 681 1415T629 1356T557 1261T476 1118T400 927T340 675T308 359Q306 321 306 250Q306 -139 400 -430T690 -924Q701 -936 701 -940Z"></path>
<path stroke-width="10" id="E2-MJSZ3-29" d="M34 1438Q34 1446 37 1448T50 1450H56H71Q73 1448 99 1423T144 1380T198 1319T260 1238T323 1137T385 1013T440 864T485 688T514 485T526 251Q526 134 519 53Q472 -519 162 -860Q139 -885 119 -904T86 -936T71 -949H56Q43 -949 39 -947T34 -937Q88 -883 140 -813Q428 -430 428 251Q428 453 402 628T338 922T245 1146T145 1309T46 1425Q44 1427 42 1429T39 1433T36 1436L34 1438Z"></path>
<path stroke-width="10" id="E2-MJMAIN-31" d="M213 578L200 573Q186 568 160 563T102 556H83V602H102Q149 604 189 617T245 641T273 663Q275 666 285 666Q294 666 302 660V361L303 61Q310 54 315 52T339 48T401 46H427V0H416Q395 3 257 3Q121 3 100 0H88V46H114Q136 46 152 46T177 47T193 50T201 52T207 57T213 61V578Z"></path>
<path stroke-width="10" id="E2-MJMAIN-2212" d="M84 237T84 250T98 270H679Q694 262 694 250T679 230H98Q84 237 84 250Z"></path>
<path stroke-width="10" id="E2-MJMAINB-50" d="M400 0Q376 3 226 3Q75 3 51 0H39V62H147V624H39V686H253Q435 686 470 685T536 678Q585 668 621 648T675 605T705 557T718 514T721 483T718 451T704 409T673 362T616 322T530 293Q500 288 399 287H304V62H412V0H400ZM553 475Q553 554 537 582T459 622Q451 623 373 624H298V343H372Q457 344 480 350Q527 362 540 390T553 475Z"></path>
<path stroke-width="10" id="E2-MJMAIN-2B" d="M56 237T56 250T70 270H369V420L370 570Q380 583 389 583Q402 583 409 568V270H707Q722 262 722 250T707 230H409V-68Q401 -82 391 -82H389H387Q375 -82 369 -68V230H70Q56 237 56 250Z"></path>
<path stroke-width="10" id="E2-MJMAIN-22EF" d="M78 250Q78 274 95 292T138 310Q162 310 180 294T199 251Q199 226 182 208T139 190T96 207T78 250ZM525 250Q525 274 542 292T585 310Q609 310 627 294T646 251Q646 226 629 208T586 190T543 207T525 250ZM972 250Q972 274 989 292T1032 310Q1056 310 1074 294T1093 251Q1093 226 1076 208T1033 190T990 207T972 250Z"></path>
<path stroke-width="10" id="E2-MJAMS-2A7D" d="M674 636Q682 636 688 630T694 615T687 601Q686 600 417 472L151 346L399 228Q687 92 691 87Q694 81 694 76Q694 58 676 56H670L382 192Q92 329 90 331Q83 336 83 348Q84 359 96 365Q104 369 382 500T665 634Q669 636 674 636ZM94 170Q102 172 104 172Q110 171 254 103T535 -30T678 -98Q694 -106 694 -118Q694 -136 676 -138H670L382 -2Q92 135 90 137Q83 142 83 154Q84 164 94 170Z"></path>
</defs>
<g stroke="currentColor" fill="currentColor" stroke-width="0" transform="matrix(1 0 0 -1 0 0)">
<g transform="translate(167,0)">
<g transform="translate(-11,0)">
<g transform="translate(0,1432)">
 <use xlink:href="#E2-MJMAINB-42" x="0" y="0"></use>
 <use xlink:href="#E2-MJMAIN-28" x="823" y="0"></use>
 <use xlink:href="#E2-MJMATHI-74" x="1217" y="0"></use>
 <use xlink:href="#E2-MJMAIN-29" x="1583" y="0"></use>
</g>
</g>
<g transform="translate(1966,0)">
<g transform="translate(0,1432)">
 <use xlink:href="#E2-MJMAIN-3D" x="277" y="0"></use>
<g transform="translate(1338,0)">
 <use xlink:href="#E2-MJSZ2-2211" x="0" y="0"></use>
<g transform="translate(145,-1105)">
 <use transform="scale(0.707)" xlink:href="#E2-MJMATHI-69" x="0" y="0"></use>
 <use transform="scale(0.707)" xlink:href="#E2-MJMAIN-3D" x="350" y="0"></use>
 <use transform="scale(0.707)" xlink:href="#E2-MJMAIN-30" x="1133" y="0"></use>
</g>
 <use transform="scale(0.707)" xlink:href="#E2-MJMATHI-6E" x="722" y="1640"></use>
</g>
<g transform="translate(2954,0)">
 <use xlink:href="#E2-MJSZ3-28" x="0" y="-1"></use>
<g transform="translate(741,0)">
 <use xlink:href="#E2-MJMATHI-6E" x="0" y="676"></use>
 <use xlink:href="#E2-MJMATHI-69" x="127" y="-686"></use>
</g>
 <use xlink:href="#E2-MJSZ3-29" x="1346" y="-1"></use>
</g>
 <use xlink:href="#E2-MJMAIN-28" x="5041" y="0"></use>
 <use xlink:href="#E2-MJMAIN-31" x="5435" y="0"></use>
 <use xlink:href="#E2-MJMAIN-2212" x="6162" y="0"></use>
 <use xlink:href="#E2-MJMATHI-74" x="7167" y="0"></use>
<g transform="translate(7533,0)">
 <use xlink:href="#E2-MJMAIN-29" x="0" y="0"></use>
<g transform="translate(394,412)">
 <use transform="scale(0.707)" xlink:href="#E2-MJMATHI-6E" x="0" y="0"></use>
 <use transform="scale(0.707)" xlink:href="#E2-MJMAIN-2212" x="605" y="0"></use>
 <use transform="scale(0.707)" xlink:href="#E2-MJMATHI-69" x="1388" y="0"></use>
</g>
</g>
<g transform="translate(9256,0)">
 <use xlink:href="#E2-MJMATHI-74" x="0" y="0"></use>
 <use transform="scale(0.707)" xlink:href="#E2-MJMATHI-69" x="517" y="583"></use>
</g>
<g transform="translate(9970,0)">
 <use xlink:href="#E2-MJMAINB-50" x="0" y="0"></use>
 <use transform="scale(0.707)" xlink:href="#E2-MJMATHI-69" x="1118" y="-213"></use>
</g>
</g>
<g transform="translate(0,-1554)">
 <use xlink:href="#E2-MJMAIN-3D" x="277" y="0"></use>
 <use xlink:href="#E2-MJMAIN-28" x="1338" y="0"></use>
 <use xlink:href="#E2-MJMAIN-31" x="1732" y="0"></use>
 <use xlink:href="#E2-MJMAIN-2212" x="2459" y="0"></use>
 <use xlink:href="#E2-MJMATHI-74" x="3465" y="0"></use>
<g transform="translate(3831,0)">
 <use xlink:href="#E2-MJMAIN-29" x="0" y="0"></use>
 <use transform="scale(0.707)" xlink:href="#E2-MJMATHI-6E" x="557" y="583"></use>
</g>
<g transform="translate(4752,0)">
 <use xlink:href="#E2-MJMAINB-50" x="0" y="0"></use>
 <use transform="scale(0.707)" xlink:href="#E2-MJMAIN-30" x="1118" y="-213"></use>
</g>
 <use xlink:href="#E2-MJMAIN-2B" x="6223" y="0"></use>
<g transform="translate(7228,0)">
 <use xlink:href="#E2-MJSZ3-28" x="0" y="-1"></use>
<g transform="translate(741,0)">
 <use xlink:href="#E2-MJMATHI-6E" x="0" y="676"></use>
 <use xlink:href="#E2-MJMAIN-31" x="50" y="-686"></use>
</g>
 <use xlink:href="#E2-MJSZ3-29" x="1346" y="-1"></use>
</g>
 <use xlink:href="#E2-MJMAIN-28" x="9315" y="0"></use>
 <use xlink:href="#E2-MJMAIN-31" x="9709" y="0"></use>
 <use xlink:href="#E2-MJMAIN-2212" x="10436" y="0"></use>
 <use xlink:href="#E2-MJMATHI-74" x="11441" y="0"></use>
<g transform="translate(11807,0)">
 <use xlink:href="#E2-MJMAIN-29" x="0" y="0"></use>
<g transform="translate(394,412)">
 <use transform="scale(0.707)" xlink:href="#E2-MJMATHI-6E" x="0" y="0"></use>
 <use transform="scale(0.707)" xlink:href="#E2-MJMAIN-2212" x="605" y="0"></use>
 <use transform="scale(0.707)" xlink:href="#E2-MJMAIN-31" x="1388" y="0"></use>
</g>
</g>
 <use xlink:href="#E2-MJMATHI-74" x="13640" y="0"></use>
<g transform="translate(14006,0)">
 <use xlink:href="#E2-MJMAINB-50" x="0" y="0"></use>
 <use transform="scale(0.707)" xlink:href="#E2-MJMAIN-31" x="1118" y="-213"></use>
</g>
 <use xlink:href="#E2-MJMAIN-2B" x="15476" y="0"></use>
 <use xlink:href="#E2-MJMAIN-22EF" x="16481" y="0"></use>
 <use xlink:href="#E2-MJMAIN-2B" x="17881" y="0"></use>
<g transform="translate(18886,0)">
 <use xlink:href="#E2-MJSZ3-28" x="0" y="-1"></use>
<g transform="translate(741,0)">
 <use xlink:href="#E2-MJMATHI-6E" x="866" y="676"></use>
<g transform="translate(0,-686)">
 <use xlink:href="#E2-MJMATHI-6E" x="0" y="0"></use>
 <use xlink:href="#E2-MJMAIN-2212" x="827" y="0"></use>
 <use xlink:href="#E2-MJMAIN-31" x="1832" y="0"></use>
</g>
</g>
 <use xlink:href="#E2-MJSZ3-29" x="3078" y="-1"></use>
</g>
 <use xlink:href="#E2-MJMAIN-28" x="22705" y="0"></use>
 <use xlink:href="#E2-MJMAIN-31" x="23099" y="0"></use>
 <use xlink:href="#E2-MJMAIN-2212" x="23826" y="0"></use>
 <use xlink:href="#E2-MJMATHI-74" x="24832" y="0"></use>
 <use xlink:href="#E2-MJMAIN-29" x="25198" y="0"></use>
<g transform="translate(25592,0)">
 <use xlink:href="#E2-MJMATHI-74" x="0" y="0"></use>
<g transform="translate(366,412)">
 <use transform="scale(0.707)" xlink:href="#E2-MJMATHI-6E" x="0" y="0"></use>
 <use transform="scale(0.707)" xlink:href="#E2-MJMAIN-2212" x="605" y="0"></use>
 <use transform="scale(0.707)" xlink:href="#E2-MJMAIN-31" x="1388" y="0"></use>
</g>
</g>
<g transform="translate(27396,0)">
 <use xlink:href="#E2-MJMAINB-50" x="0" y="0"></use>
<g transform="translate(791,-150)">
 <use transform="scale(0.707)" xlink:href="#E2-MJMATHI-6E" x="0" y="0"></use>
 <use transform="scale(0.707)" xlink:href="#E2-MJMAIN-2212" x="605" y="0"></use>
 <use transform="scale(0.707)" xlink:href="#E2-MJMAIN-31" x="1388" y="0"></use>
</g>
</g>
 <use xlink:href="#E2-MJMAIN-2B" x="29848" y="0"></use>
<g transform="translate(30853,0)">
 <use xlink:href="#E2-MJMATHI-74" x="0" y="0"></use>
 <use transform="scale(0.707)" xlink:href="#E2-MJMATHI-6E" x="517" y="583"></use>
</g>
<g transform="translate(31747,0)">
 <use xlink:href="#E2-MJMAINB-50" x="0" y="0"></use>
 <use transform="scale(0.707)" xlink:href="#E2-MJMATHI-6E" x="1118" y="-213"></use>
</g>
</g>
</g>
<g transform="translate(37032,0)">
<g transform="translate(0,-1554)">
 <use xlink:href="#E2-MJMAIN-30" x="0" y="0"></use>
 <use xlink:href="#E2-MJAMS-2A7D" x="782" y="0"></use>
 <use xlink:href="#E2-MJMATHI-74" x="1843" y="0"></use>
 <use xlink:href="#E2-MJAMS-2A7D" x="2487" y="0"></use>
 <use xlink:href="#E2-MJMAIN-31" x="3548" y="0"></use>
</g>
</g>
</g>
</g>
</svg>